<svg xmlns="http://www.w3.org/2000/svg" viewBox="0 0 64 64" id="translate-language">
  <path fill="#0CAD99" d="M25.92 37.32c0 9.34 8.53 16.91 19.04 16.91 1.37 0 2.7-.13 3.99-.38 9.08 4.18 13.29 3.86 14.47 3.26.34-.18.36-.66.06-.9-3.65-2.83-4.79-5.66-5.14-6.87 3.5-3.06 5.67-7.32 5.67-12.02 0-9.34-8.53-16.9-19.04-16.9-10.53 0-19.05 7.56-19.05 16.9z"></path>
  <path fill="#FFF" d="m41.15 40.07-2.19 6.63h-2.81l7.16-21.07h3.28l7.19 21.07h-2.91l-2.25-6.63h-7.47zm6.9-2.12-2.06-6.06c-.47-1.38-.78-2.63-1.09-3.84h-.06c-.31 1.25-.66 2.53-1.06 3.81l-2.06 6.09h6.33z"></path>
  <path fill="#10AFE9" d="M38.08 23.44c0 9.34-8.53 16.91-19.04 16.91-1.37 0-2.7-.13-3.99-.38C5.97 44.15 1.76 43.83.58 43.23c-.34-.18-.36-.66-.06-.9 3.65-2.83 4.79-5.66 5.14-6.87C2.17 32.4 0 28.14 0 23.44c0-9.34 8.53-16.9 19.04-16.9 10.52-.01 19.04 7.56 19.04 16.9z"></path>
  <path fill="#FFF" d="M29.43 31.05c-4.63-.19-7.66-1.54-9.65-3.19 3.52-3.8 4.98-8.62 5.43-10.49h3.47a.95.95 0 1 0 0-1.9h-8.6v-3.35a.95.95 0 1 0-1.9 0v3.35h-8.6a.95.95 0 1 0 0 1.9h13.68c-.5 1.92-1.85 5.96-4.82 9.16-2.18-2.58-2.4-5.33-2.42-5.54a.958.958 0 0 0-1.01-.89c-.53.03-.93.48-.89 1.01 0 .06.26 3.54 2.97 6.72-2.11 1.78-4.85 3.09-8.43 3.24a.95.95 0 0 0 .04 1.9h.04c4.16-.18 7.31-1.72 9.7-3.79 2.26 1.97 5.7 3.57 10.93 3.79h.04c.51 0 .93-.4.95-.91.01-.54-.4-.99-.93-1.01z"></path>
</svg>
