<svg xmlns="http://www.w3.org/2000/svg" viewBox="0 0 64 64" id="book">
  <g>
    <path fill="#dcdcf9" d="M8.63 6.3577l2.0555-.8809a.5187.5187 0 0 0 0-.9536L8.63 3.6423A.519.519 0 0 1 8.3577 3.37L7.4768 1.3144a.5187.5187 0 0 0-.9536 0L5.6423 3.37a.519.519 0 0 1-.2724.2724l-2.0555.8809a.5187.5187 0 0 0 0 .9536L5.37 6.3577a.519.519 0 0 1 .2724.2724l.8809 2.0555a.5187.5187 0 0 0 .9536 0L8.3577 6.63A.519.519 0 0 1 8.63 6.3577zM59.63 21.3577l2.0555-.8809a.5187.5187 0 0 0 0-.9536L59.63 18.6423a.519.519 0 0 1-.2724-.2724l-.8809-2.0555a.5187.5187 0 0 0-.9536 0L56.6423 18.37a.519.519 0 0 1-.2724.2724l-2.0555.8809a.5187.5187 0 0 0 0 .9536l2.0555.8809a.519.519 0 0 1 .2724.2724l.8809 2.0555a.5187.5187 0 0 0 .9536 0l.8809-2.0555A.519.519 0 0 1 59.63 21.3577zM6.2226 23.0183l1.5416-.6607a.3891.3891 0 0 0 0-.7152l-1.5416-.6607a.3887.3887 0 0 1-.2043-.2043l-.6607-1.5416a.3891.3891 0 0 0-.7152 0l-.6607 1.5416a.3887.3887 0 0 1-.2043.2043l-1.5416.6607a.3891.3891 0 0 0 0 .7152l1.5416.6607a.3887.3887 0 0 1 .2043.2043l.6607 1.5416a.3891.3891 0 0 0 .7152 0l.6607-1.5416A.3887.3887 0 0 1 6.2226 23.0183z"></path>
    <path fill="#f0f0ff" d="M54.2226,6.0183l1.5416-.6607a.3891.3891,0,0,0,0-.7152l-1.5416-.6607a.3887.3887,0,0,1-.2043-.2043l-.6607-1.5416a.3891.3891,0,0,0-.7152,0l-.6607,1.5416a.3887.3887,0,0,1-.2043.2043l-1.5416.6607a.3891.3891,0,0,0,0,.7152l1.5416.6607a.3887.3887,0,0,1,.2043.2043l.6607,1.5416a.3891.3891,0,0,0,.7152,0l.6607-1.5416A.3887.3887,0,0,1,54.2226,6.0183Z"></path>
    <circle cx="23.5" cy="3.5" r="1.5" fill="#f0f0ff"></circle>
    <circle cx="38" cy="5" r="1" fill="#f0f0ff"></circle>
    <circle cx="5" cy="14" r="1" fill="#f0f0ff"></circle>
    <circle cx="53" cy="15" r="1" fill="#f0f0ff"></circle>
    <path fill="#8dc1f3" d="M48,18V58a4,4,0,0,1-4,4H14a4,4,0,0,1-4-4V14a3.9989,3.9989,0,0,0,4,4Z"></path>
    <path fill="#7eaada" d="M44,18V54a4,4,0,0,1-4,4H10a4,4,0,0,0,4,4H44a4,4,0,0,0,4-4V18Z"></path>
    <path fill="#a9d1f7" d="M41,35H31a1,1,0,0,1,0-2H41a1,1,0,0,1,0,2ZM28,34a1,1,0,0,0-1-1H25a1,1,0,0,0,0,2h2A1,1,0,0,0,28,34Zm14,4a1,1,0,0,0-1-1H35a1,1,0,0,0,0,2h6A1,1,0,0,0,42,38ZM32,38a1,1,0,0,0-1-1H25a1,1,0,0,0,0,2h6A1,1,0,0,0,32,38Z"></path>
    <path fill="#ea5a6b" d="M18,18V62H14a3.9989,3.9989,0,0,1-4-4V14a3.9989,3.9989,0,0,0,4,4Z"></path>
    <path fill="#fff" d="M12.5,32a.5.5,0,0,1-.5-.5v-8a.5.5,0,0,1,1,0v8A.5.5,0,0,1,12.5,32Zm.5,2.5v-1a.5.5,0,0,0-1,0v1a.5.5,0,0,0,1,0Z"></path>
    <path fill="#c8556b" d="M10,54v4a3.9989,3.9989,0,0,0,4,4h4V58H14A3.9989,3.9989,0,0,1,10,54Z"></path>
    <path fill="#dcdcf9" d="M48,18H14a4,4,0,1,1,0-8H48a4,4,0,0,0,0,8Z"></path>
    <path fill="#7eaada" d="M48,10v8a4,4,0,0,1,0-8Z"></path>
    <rect width="16" height="5" x="25" y="25" fill="#dcdcf9"></rect>
    <polygon fill="#ea5a6b" points="55 38 48 38 48 30 55 30 53 34 55 38"></polygon>
    <polygon fill="#ffbd5a" points="55 51 48 51 48 43 55 43 53 47 55 51"></polygon>
    <path fill="#3d436b" d="M41,24H25a1,1,0,0,0-1,1v5a1,1,0,0,0,1,1H41a1,1,0,0,0,1-1V25A1,1,0,0,0,41,24Zm-1,5H26V26H40ZM55,39a1,1,0,0,0,.8945-1.4473L54.1182,34l1.7763-3.5527A1,1,0,0,0,55,29H49V10a1,1,0,0,0-1-1H14a4.9947,4.9947,0,0,0-5,5V58a5.0059,5.0059,0,0,0,5,5H44a5.0059,5.0059,0,0,0,5-5V52h6a1,1,0,0,0,.8945-1.4473L54.1182,47l1.7763-3.5527A1,1,0,0,0,55,42H49V39Zm-1.6182-8-1.2763,2.5527a1.0008,1.0008,0,0,0,0,.8946L53.3818,37H49V31ZM47,16.8157a2.982,2.982,0,0,1,0-5.6314ZM11.8721,11.8818A3.0191,3.0191,0,0,1,14,11H44.0256a4.9536,4.9536,0,0,0-.9245,2H21a1,1,0,0,0,0,2H43.1011a4.9536,4.9536,0,0,0,.9245,2H14a3.0025,3.0025,0,0,1-2.1279-5.1182ZM11,58V17.9744A4.9514,4.9514,0,0,0,14,19h3V61H14A3.0033,3.0033,0,0,1,11,58Zm36,0a3.0033,3.0033,0,0,1-3,3H19V19H47V58Zm5.1055-10.5527L53.3818,50H49V44h4.3818l-1.2763,2.5527A1.0008,1.0008,0,0,0,52.1055,47.4473Z"></path>
  </g>
</svg>
