<svg xmlns="http://www.w3.org/2000/svg" viewBox="0 0 512 512" id="growth">
  <defs>
    <linearGradient id="a" x1="344.4" x2="406.39" y1="232.56" y2="232.56" gradientUnits="userSpaceOnUse">
      <stop offset="0" stop-color="#cacfdd"></stop>
      <stop offset="1" stop-color="#eef0f1"></stop>
    </linearGradient>
  </defs>
  <g style="isolation:isolate">
    <polygon fill="#dee1ec" points="406.38 326.23 317.06 326.23 317.06 169.19 406.38 130.29 406.38 326.23"></polygon>
    <path fill="url(#a)" d="M406.39,160V305.16a73.5,73.5,0,0,1,0-145.19Z" style="mix-blend-mode:multiply"></path>
    <rect width="381.9" height="18.08" x="36" y="326.23" fill="#dee1ec"></rect>
    <path fill="#5e6175" d="M420.9,347.31H33V323.23H420.9Zm-381.9-6H414.9V329.23H39Z"></path>
    <polygon fill="#a9afc4" points="138.4 326.23 49.08 326.23 49.08 245.49 97.27 245.49 138.4 222.69 138.4 326.23"></polygon>
    <polygon fill="#f5f5f5" points="227.73 326.23 138.4 326.23 138.4 222.69 183.07 196.62 227.73 196.62 227.73 326.23"></polygon>
    <path fill="#e1830e" d="M317.06,326.23H227.73V196.62h1.93l42.73-27.43h44.67Z"></path>
    <path fill="#5e6175" d="M141.4,329.23H46.08V242.49H96.49l44.91-24.9Zm-89.32-6H135.4V227.78L98,248.49h-46Z"></path>
    <path fill="#5e6175" d="M230.73,329.23H135.4V221l46.86-27.34h48.47Zm-89.33-6h83.33V199.62H183.88L141.4,224.41Z"></path>
    <path fill="#5e6175" d="M320.06,329.23H224.73V193.62h4.05l42.73-27.43h48.55Zm-89.33-6h83.33v-151H273.27l-42.54,27.3Z"></path>
    <path fill="#5e6175" d="M409.38,329.23H314.06v-162l95.32-41.52Zm-89.32-6h83.32V134.87l-83.32,36.29Z"></path>
    <polygon fill="#5e6175" points="98.03 207.31 49.08 207.31 49.08 201.31 96.5 201.31 173.71 159.01 226.56 159.01 271.52 130.27 316.36 130.27 400.19 89.2 402.84 94.59 317.75 136.27 273.27 136.27 228.32 165.01 175.25 165.01 98.03 207.31"></polygon>
    <rect width="64.41" height="22.97" x="59.61" y="384.63" fill="#a9afc4"></rect>
    <rect width="65.1" height="22.97" x="147.56" y="384.63" fill="#f5f5f5"></rect>
    <rect width="63.07" height="22.97" x="238.93" y="384.63" fill="#e1830e"></rect>
    <rect width="64.41" height="6" x="59.61" y="423.96" fill="#5e6175"></rect>
    <rect width="64.41" height="6" x="59.61" y="444.37" fill="#5e6175"></rect>
    <rect width="64.41" height="6" x="147.64" y="423.96" fill="#5e6175"></rect>
    <rect width="64.41" height="6" x="147.64" y="444.37" fill="#5e6175"></rect>
    <rect width="63.76" height="6" x="238.59" y="423.96" fill="#5e6175"></rect>
    <rect width="63.76" height="6" x="238.59" y="444.37" fill="#5e6175"></rect>
    <rect width="63.07" height="22.97" x="328.26" y="384.63" fill="#dee1ec"></rect>
    <rect width="63.76" height="6" x="327.92" y="423.96" fill="#5e6175"></rect>
    <rect width="63.76" height="6" x="327.92" y="444.37" fill="#5e6175"></rect>
    <circle cx="417.9" cy="232.56" r="58.1" fill="#f5f5f5"></circle>
    <path fill="#5e6175" d="M417.9,293.66a61.1,61.1,0,1,1,61.1-61.1A61.17,61.17,0,0,1,417.9,293.66Zm0-116.2a55.1,55.1,0,1,0,55.1,55.1A55.17,55.17,0,0,0,417.9,177.46Z"></path>
    <path fill="#e1830e" d="M417.9,200.46l-26,26.68h14.47v34.28h23V227.14h14.46Z"></path>
    <circle cx="96.17" cy="204.31" r="12.45" fill="#e1830e"></circle>
    <circle cx="172.94" cy="162.01" r="12.45" fill="#e1830e"></circle>
    <circle cx="274.99" cy="133.27" r="12.45" fill="#e1830e"></circle>
    <circle cx="361.72" cy="110.96" r="12.45" fill="#e1830e"></circle>
    <path fill="#5e6175" d="M150.31 114.4a10.94 10.94 0 1119.7-4.57h0A11 11 0 01150.31 114.4zm8.91-11.3a4.94 4.94 0 104.88 5.74A4.95 4.95 0 00159.22 103.1zM108.23 141a8.52 8.52 0 1115.33-3.56A8.53 8.53 0 01108.23 141zm6.93-7.47a2.52 2.52 0 102.48 2.93A2.52 2.52 0 00115.16 133.52z"></path>
    <path fill="#a9afc4" d="M469.89,175.26c-1.34-1.37-2.75-2.69-4.19-3.92l3.9-4.56c1.58,1.35,3.11,2.79,4.58,4.27ZM458,165.66c-1.6-1-3.28-2-5-2.88l2.78-5.31c1.85,1,3.67,2,5.41,3.12Zm-13.76-6.75c-3-1.09-4.34-1.37-5.71-1.88l2.08-5.63c.32.12.65.23,1,.33,1.57.46,3.15,1,4.7,1.54Zm-15-8.74A21,21,0,0,1,426,144l5.7-1.88a14.74,14.74,0,0,0,2.32,4.4Zm1.68-17h-6v-6h6Zm0-16h-6v-6h6Z"></path>
    <path fill="#e1830e" d="M417.9 373.24a28.94 28.94 0 0128.93 28.94 28.94 28.94 0 0128.94-28.94 28.94 28.94 0 01-28.94-28.93A28.93 28.93 0 01417.9 373.24zM59.61 79.1A14.47 14.47 0 0174.08 93.57 14.46 14.46 0 0188.54 79.1 14.46 14.46 0 0174.08 64.63 14.47 14.47 0 0159.61 79.1z"></path>
  </g>
</svg>
