<svg xmlns="http://www.w3.org/2000/svg" width="128" height="128" fill="none" viewBox="0 0 128 128" id="settings">
  <path fill="url(#paint0_linear)" d="M90.668 10.668H37.3346C22.607 10.668 10.668 22.607 10.668 37.3346V90.668C10.668 105.396 22.607 117.335 37.3346 117.335H90.668C105.396 117.335 117.335 105.396 117.335 90.668V37.3346C117.335 22.607 105.396 10.668 90.668 10.668Z"></path>
  <g filter="url(#filter0_d)" opacity=".9">
    <path fill="#fff" d="M87.9991 70.1907L85.3325 68.6467C84.5202 68.1796 83.8458 67.5062 83.3775 66.6947C82.9093 65.8832 82.6637 64.9623 82.6658 64.0254V63.9694C82.6634 63.0327 82.9088 62.1121 83.3771 61.3009C83.8455 60.4897 84.5201 59.8169 85.3325 59.3507L87.9991 57.8067C88.6116 57.4531 89.0585 56.8706 89.2415 56.1875C89.4246 55.5044 89.3287 54.7765 88.9751 54.164L85.0071 47.2894C84.6535 46.6769 84.071 46.23 83.3879 46.047C82.7048 45.8639 81.9769 45.9598 81.3645 46.3134L78.6658 47.8654C77.8606 48.3299 76.9474 48.5745 76.0178 48.5745C75.0882 48.5745 74.175 48.3299 73.3698 47.8654L73.3165 47.836C72.5068 47.372 71.834 46.7027 71.3658 45.8955C70.8976 45.0883 70.6506 44.1719 70.6498 43.2387V39.9987C70.6498 39.2915 70.3688 38.6132 69.8687 38.1131C69.3686 37.613 68.6904 37.332 67.9831 37.332H59.9831C59.2759 37.332 58.5976 37.613 58.0975 38.1131C57.5974 38.6132 57.3165 39.2915 57.3165 39.9987V43.4494C57.3162 44.319 57.0869 45.1732 56.6515 45.9259C56.2161 46.6787 55.5901 47.3035 54.8365 47.7374L54.4285 47.972C53.6771 48.4052 52.8251 48.6332 51.9578 48.6332C51.0905 48.6332 50.2385 48.4052 49.4871 47.972L46.6231 46.3187C46.0106 45.9651 45.2828 45.8693 44.5997 46.0523C43.9165 46.2353 43.3341 46.6822 42.9805 47.2947L39.0125 54.1694C38.6614 54.7827 38.5682 55.5102 38.7532 56.1922C38.9382 56.8742 39.3863 57.4549 39.9991 57.8067L42.6658 59.3507C43.478 59.8178 44.1524 60.4912 44.6207 61.3027C45.089 62.1142 45.3345 63.0351 45.3325 63.972V64.028C45.3349 64.9647 45.0895 65.8853 44.6211 66.6965C44.1528 67.5077 43.4782 68.1805 42.6658 68.6467L39.9991 70.1907C39.3867 70.5443 38.9398 71.1268 38.7567 71.8099C38.5737 72.493 38.6695 73.2209 39.0231 73.8334L42.9911 80.708C43.3448 81.3205 43.9272 81.7674 44.6103 81.9504C45.2935 82.1335 46.0213 82.0376 46.6338 81.684L49.3325 80.132C50.1376 79.6675 51.0509 79.4229 51.9805 79.4229C52.91 79.4229 53.8233 79.6675 54.6285 80.132L54.6818 80.1614C55.4914 80.6254 56.1643 81.2947 56.6325 82.1019C57.1007 82.9091 57.3477 83.8256 57.3485 84.7587V87.9987C57.3485 88.706 57.6294 89.3842 58.1295 89.8843C58.6296 90.3844 59.3079 90.6654 60.0151 90.6654H68.0151C68.7224 90.6654 69.4006 90.3844 69.9007 89.8843C70.4008 89.3842 70.6818 88.706 70.6818 87.9987V84.7507C70.6829 83.8187 70.9301 82.9035 71.3983 82.0976C71.8666 81.2918 72.5393 80.6239 73.3485 80.1614L73.4045 80.1294C74.2096 79.6648 75.1229 79.4203 76.0525 79.4203C76.982 79.4203 77.8953 79.6648 78.7005 80.1294L81.3885 81.6814C82.0009 82.035 82.7288 82.1308 83.4119 81.9478C84.095 81.7647 84.6775 81.3178 85.0311 80.7054L88.9991 73.8307C89.1728 73.5261 89.2847 73.1903 89.3285 72.8424C89.3722 72.4945 89.3469 72.1414 89.254 71.8033C89.1611 71.4652 89.0025 71.1488 88.7872 70.872C88.5718 70.5953 88.304 70.3638 87.9991 70.1907ZM63.9991 71.9987C62.4169 71.9987 60.8702 71.5295 59.5546 70.6505C58.239 69.7714 57.2136 68.522 56.6081 67.0602C56.0026 65.5984 55.8442 63.9898 56.1528 62.438C56.4615 60.8861 57.2234 59.4607 58.3423 58.3418C59.4611 57.223 60.8866 56.4611 62.4384 56.1524C63.9902 55.8437 65.5988 56.0022 67.0606 56.6077C68.5224 57.2132 69.7718 58.2385 70.6509 59.5541C71.5299 60.8697 71.9991 62.4165 71.9991 63.9987C71.9991 66.1204 71.1563 68.1553 69.656 69.6556C68.1557 71.1559 66.1209 71.9987 63.9991 71.9987Z"></path>
  </g>
  <path fill="#fff" d="M64 72C68.4183 72 72 68.4183 72 64C72 59.5817 68.4183 56 64 56C59.5817 56 56 59.5817 56 64C56 68.4183 59.5817 72 64 72Z" opacity=".5"></path>
  <defs>
    <linearGradient id="paint0_linear" x1="22.959" x2="108.319" y1="22.959" y2="108.319" gradientUnits="userSpaceOnUse">
      <stop stop-color="#666"></stop>
      <stop offset=".377" stop-color="#4C4C4C"></stop>
      <stop offset=".741" stop-color="#3A3A3A"></stop>
      <stop offset="1" stop-color="#333"></stop>
    </linearGradient>
    <filter id="filter0_d" width="66.689" height="69.333" x="30.66" y="31.332" color-interpolation-filters="sRGB" filterUnits="userSpaceOnUse">
      <feFlood flood-opacity="0" result="BackgroundImageFix"></feFlood>
      <feColorMatrix in="SourceAlpha" values="0 0 0 0 0 0 0 0 0 0 0 0 0 0 0 0 0 0 127 0"></feColorMatrix>
      <feOffset dy="2"></feOffset>
      <feGaussianBlur stdDeviation="4"></feGaussianBlur>
      <feColorMatrix values="0 0 0 0 0 0 0 0 0 0 0 0 0 0 0 0 0 0 0.25 0"></feColorMatrix>
      <feBlend in2="BackgroundImageFix" result="effect1_dropShadow"></feBlend>
      <feBlend in="SourceGraphic" in2="effect1_dropShadow" result="shape"></feBlend>
    </filter>
  </defs>
</svg>
